<svg width="343" height="80" viewBox="0 0 343 80" fill="none" xmlns="http://www.w3.org/2000/svg">
<path d="M92.464 30.24C91.824 30.24 91.2267 30.128 90.672 29.904C90.128 29.6693 89.664 29.344 89.28 28.928C88.896 28.512 88.624 28.016 88.464 27.44L90.304 26.992C90.4747 27.4827 90.7467 27.8613 91.12 28.128C91.4933 28.3947 91.9467 28.528 92.48 28.528C92.864 28.528 93.2053 28.4533 93.504 28.304C93.8027 28.1547 94.0373 27.952 94.208 27.696C94.3893 27.44 94.48 27.1467 94.48 26.816C94.48 26.4107 94.3307 26.0747 94.032 25.808C93.744 25.5307 93.2853 25.3227 92.656 25.184L92.064 25.056C90.9333 24.8107 90.096 24.4053 89.552 23.84C89.0187 23.2747 88.752 22.5867 88.752 21.776C88.752 21.2853 88.848 20.8373 89.04 20.432C89.232 20.016 89.4987 19.6587 89.84 19.36C90.1813 19.0507 90.5813 18.816 91.04 18.656C91.4987 18.4853 91.9947 18.4 92.528 18.4C93.136 18.4 93.696 18.512 94.208 18.736C94.72 18.96 95.1573 19.28 95.52 19.696C95.8827 20.1013 96.1387 20.5867 96.288 21.152L94.464 21.6C94.2933 21.12 94.0373 20.752 93.696 20.496C93.3547 20.24 92.9493 20.112 92.48 20.112C92.1387 20.112 91.8347 20.1813 91.568 20.32C91.312 20.448 91.104 20.6293 90.944 20.864C90.7947 21.088 90.72 21.344 90.72 21.632C90.72 22.048 90.8747 22.3787 91.184 22.624C91.4933 22.8693 91.968 23.0667 92.608 23.216L93.2 23.344C95.376 23.8347 96.464 24.9387 96.464 26.656C96.464 27.1787 96.3627 27.664 96.16 28.112C95.968 28.5493 95.6907 28.928 95.328 29.248C94.9653 29.5573 94.5387 29.8027 94.048 29.984C93.568 30.1547 93.04 30.24 92.464 30.24ZM98.0233 33.168V21.632H99.7033L99.7833 22.976C100.082 22.4853 100.477 22.1013 100.967 21.824C101.458 21.536 102.007 21.392 102.615 21.392C103.17 21.392 103.682 21.504 104.151 21.728C104.631 21.952 105.047 22.2613 105.399 22.656C105.751 23.0507 106.023 23.5147 106.215 24.048C106.418 24.5813 106.519 25.1573 106.519 25.776C106.519 26.4053 106.418 26.992 106.215 27.536C106.013 28.08 105.73 28.5547 105.367 28.96C105.005 29.3653 104.578 29.68 104.087 29.904C103.607 30.128 103.085 30.24 102.519 30.24C101.965 30.24 101.458 30.1227 100.999 29.888C100.541 29.6533 100.162 29.3227 99.8633 28.896V33.168H98.0233ZM102.231 28.576C102.69 28.576 103.101 28.4587 103.463 28.224C103.826 27.9787 104.109 27.648 104.311 27.232C104.525 26.816 104.631 26.3413 104.631 25.808C104.631 25.2747 104.525 24.8053 104.311 24.4C104.109 23.984 103.826 23.6587 103.463 23.424C103.101 23.1787 102.69 23.056 102.231 23.056C101.773 23.056 101.362 23.1787 100.999 23.424C100.637 23.6587 100.349 23.984 100.135 24.4C99.9326 24.8053 99.8313 25.2747 99.8313 25.808C99.8313 26.3413 99.9326 26.816 100.135 27.232C100.349 27.648 100.637 27.9787 100.999 28.224C101.362 28.4587 101.773 28.576 102.231 28.576ZM110.165 19.296C110.165 19.4987 110.111 19.6853 110.005 19.856C109.909 20.0267 109.775 20.1653 109.605 20.272C109.434 20.368 109.247 20.416 109.045 20.416C108.842 20.416 108.655 20.368 108.485 20.272C108.314 20.1653 108.175 20.0267 108.069 19.856C107.973 19.6853 107.925 19.4987 107.925 19.296C107.925 19.0933 107.973 18.9067 108.069 18.736C108.175 18.5653 108.314 18.432 108.485 18.336C108.655 18.2293 108.842 18.176 109.045 18.176C109.247 18.176 109.434 18.2293 109.605 18.336C109.775 18.432 109.909 18.5653 110.005 18.736C110.111 18.9067 110.165 19.0933 110.165 19.296ZM108.133 30V21.632H109.973V30H108.133ZM115.737 30.24C115.139 30.24 114.59 30.1333 114.089 29.92C113.587 29.696 113.15 29.392 112.777 29.008C112.403 28.6133 112.11 28.1493 111.897 27.616C111.694 27.0827 111.593 26.5013 111.593 25.872C111.593 25.2427 111.699 24.656 111.913 24.112C112.126 23.568 112.419 23.0933 112.793 22.688C113.166 22.2827 113.603 21.968 114.105 21.744C114.617 21.5093 115.171 21.392 115.769 21.392C116.345 21.392 116.873 21.4987 117.353 21.712C117.833 21.9147 118.243 22.208 118.585 22.592C118.937 22.9653 119.187 23.408 119.337 23.92L117.593 24.336C117.411 23.9307 117.155 23.616 116.825 23.392C116.505 23.168 116.142 23.056 115.737 23.056C115.31 23.056 114.926 23.1787 114.585 23.424C114.243 23.6693 113.971 24.0053 113.769 24.432C113.577 24.848 113.481 25.3227 113.481 25.856C113.481 26.3787 113.577 26.848 113.769 27.264C113.961 27.6693 114.222 27.9893 114.553 28.224C114.894 28.4587 115.289 28.576 115.737 28.576C116.163 28.576 116.553 28.4693 116.905 28.256C117.257 28.032 117.518 27.7173 117.689 27.312L119.417 27.712C119.267 28.224 119.011 28.672 118.649 29.056C118.286 29.4293 117.854 29.7227 117.353 29.936C116.851 30.1387 116.313 30.24 115.737 30.24ZM121.909 33.328C121.642 33.328 121.392 33.3013 121.157 33.248C120.933 33.1947 120.714 33.1093 120.501 32.992L120.901 31.536C121.018 31.5893 121.152 31.632 121.301 31.664C121.45 31.7067 121.594 31.728 121.733 31.728C122.053 31.728 122.33 31.6373 122.565 31.456C122.81 31.2747 123.013 30.9813 123.173 30.576L123.429 29.92L120.021 21.632H122.037L124.293 27.888L126.341 21.632H128.293L124.741 31.008C124.432 31.808 124.042 32.3947 123.573 32.768C123.114 33.1413 122.56 33.328 121.909 33.328ZM133.042 30V18.64H136.466C137.373 18.64 138.151 18.784 138.802 19.072C139.463 19.36 139.97 19.7707 140.322 20.304C140.674 20.8373 140.85 21.472 140.85 22.208C140.85 22.6667 140.765 23.0987 140.594 23.504C140.434 23.8987 140.199 24.256 139.89 24.576C139.591 24.896 139.229 25.1573 138.802 25.36L141.442 30H139.282L137.09 25.872C136.973 25.8827 136.839 25.8933 136.69 25.904C136.551 25.904 136.407 25.904 136.258 25.904C135.885 25.904 135.453 25.8667 134.962 25.792V30H133.042ZM134.962 20.336V24.096C135.186 24.1387 135.415 24.1707 135.65 24.192C135.895 24.2027 136.135 24.208 136.37 24.208C137.159 24.208 137.773 24.0373 138.21 23.696C138.647 23.3547 138.866 22.88 138.866 22.272C138.866 21.664 138.653 21.1893 138.226 20.848C137.799 20.5067 137.202 20.336 136.434 20.336H134.962ZM145.365 30.24C144.938 30.24 144.543 30.176 144.181 30.048C143.829 29.92 143.519 29.7387 143.253 29.504C142.986 29.2693 142.778 28.992 142.629 28.672C142.479 28.352 142.405 28 142.405 27.616C142.405 27.0827 142.543 26.6187 142.821 26.224C143.109 25.8187 143.509 25.504 144.021 25.28C144.533 25.056 145.13 24.944 145.812 24.944C146.186 24.944 146.543 24.9813 146.885 25.056C147.226 25.12 147.551 25.216 147.861 25.344V24.816C147.861 24.4427 147.791 24.1173 147.653 23.84C147.514 23.552 147.317 23.328 147.061 23.168C146.805 23.008 146.495 22.928 146.133 22.928C145.749 22.928 145.402 23.0293 145.093 23.232C144.783 23.4347 144.554 23.7173 144.405 24.08L142.709 23.696C142.837 23.2267 143.066 22.8213 143.397 22.48C143.738 22.1387 144.143 21.872 144.613 21.68C145.093 21.488 145.61 21.392 146.165 21.392C146.687 21.392 147.162 21.4773 147.589 21.648C148.026 21.8187 148.399 22.0587 148.709 22.368C149.018 22.6773 149.258 23.0453 149.429 23.472C149.599 23.8987 149.685 24.3733 149.685 24.896V30H148.005L147.941 28.896C147.717 29.3013 147.381 29.6267 146.933 29.872C146.485 30.1173 145.962 30.24 145.365 30.24ZM144.261 27.536C144.261 27.7707 144.325 27.984 144.453 28.176C144.581 28.3573 144.757 28.5013 144.981 28.608C145.215 28.7147 145.487 28.768 145.797 28.768C146.191 28.768 146.543 28.6827 146.853 28.512C147.162 28.3413 147.407 28.112 147.589 27.824C147.77 27.5253 147.861 27.1893 147.861 26.816V26.624C147.583 26.5067 147.295 26.416 146.997 26.352C146.709 26.2773 146.41 26.24 146.101 26.24C145.546 26.24 145.098 26.3573 144.757 26.592C144.426 26.8267 144.261 27.1413 144.261 27.536ZM151.664 30V21.632H153.344L153.408 22.752C153.653 22.336 153.989 22.0053 154.416 21.76C154.843 21.5147 155.328 21.392 155.872 21.392C156.459 21.392 156.976 21.5413 157.424 21.84C157.872 22.128 158.219 22.528 158.464 23.04C158.624 22.7093 158.837 22.4213 159.104 22.176C159.381 21.9307 159.701 21.7387 160.064 21.6C160.437 21.4613 160.837 21.392 161.264 21.392C161.883 21.392 162.421 21.5413 162.88 21.84C163.339 22.128 163.691 22.544 163.936 23.088C164.192 23.6213 164.32 24.2613 164.32 25.008V30H162.48V25.216C162.48 24.5227 162.331 23.9893 162.032 23.616C161.733 23.2427 161.323 23.056 160.8 23.056C160.437 23.056 160.112 23.1467 159.824 23.328C159.547 23.4987 159.323 23.744 159.152 24.064C158.992 24.3733 158.912 24.7253 158.912 25.12V30H157.072V25.216C157.072 24.5227 156.923 23.9893 156.624 23.616C156.325 23.2427 155.915 23.056 155.392 23.056C155.029 23.056 154.704 23.1467 154.416 23.328C154.139 23.4987 153.915 23.744 153.744 24.064C153.584 24.3733 153.504 24.7253 153.504 25.12V30H151.664ZM170.193 30.24C169.574 30.24 169.003 30.1333 168.481 29.92C167.969 29.696 167.521 29.3867 167.137 28.992C166.753 28.5973 166.454 28.1333 166.241 27.6C166.038 27.056 165.937 26.4587 165.937 25.808C165.937 25.1787 166.038 24.5973 166.241 24.064C166.454 23.5307 166.742 23.0667 167.105 22.672C167.478 22.2667 167.915 21.952 168.417 21.728C168.918 21.504 169.462 21.392 170.049 21.392C170.635 21.392 171.169 21.4987 171.649 21.712C172.139 21.9147 172.561 22.208 172.913 22.592C173.275 22.976 173.553 23.4347 173.745 23.968C173.937 24.4907 174.033 25.072 174.033 25.712V26.256H167.841C167.894 26.7467 168.022 27.1733 168.225 27.536C168.438 27.888 168.71 28.16 169.041 28.352C169.371 28.544 169.755 28.64 170.193 28.64C171.067 28.64 171.75 28.2507 172.241 27.472L173.857 28.096C173.665 28.5333 173.382 28.9173 173.009 29.248C172.646 29.568 172.219 29.8133 171.729 29.984C171.249 30.1547 170.737 30.24 170.193 30.24ZM170.049 22.88C169.675 22.88 169.339 22.9653 169.041 23.136C168.753 23.3067 168.507 23.5467 168.305 23.856C168.102 24.1653 167.963 24.528 167.889 24.944H172.113C172.049 24.528 171.926 24.1653 171.745 23.856C171.563 23.5467 171.323 23.3067 171.025 23.136C170.737 22.9653 170.411 22.88 170.049 22.88ZM175.601 30V21.632H177.281L177.345 22.784C177.591 22.3573 177.932 22.0213 178.369 21.776C178.817 21.52 179.329 21.392 179.905 21.392C180.535 21.392 181.079 21.5413 181.537 21.84C182.007 22.1387 182.369 22.56 182.625 23.104C182.881 23.648 183.009 24.288 183.009 25.024V30H181.169V25.232C181.169 24.5493 181.015 24.016 180.705 23.632C180.407 23.248 179.985 23.056 179.441 23.056C179.057 23.056 178.711 23.1467 178.401 23.328C178.103 23.5093 177.868 23.7547 177.697 24.064C177.527 24.3733 177.441 24.7307 177.441 25.136V30H175.601ZM185.878 33.328C185.611 33.328 185.36 33.3013 185.126 33.248C184.902 33.1947 184.683 33.1093 184.47 32.992L184.87 31.536C184.987 31.5893 185.12 31.632 185.27 31.664C185.419 31.7067 185.563 31.728 185.702 31.728C186.022 31.728 186.299 31.6373 186.534 31.456C186.779 31.2747 186.982 30.9813 187.142 30.576L187.398 29.92L183.99 21.632H186.006L188.262 27.888L190.31 21.632H192.262L188.71 31.008C188.4 31.808 188.011 32.3947 187.542 32.768C187.083 33.1413 186.528 33.328 185.878 33.328ZM197.156 30.24C196.41 30.24 195.759 30.08 195.204 29.76C194.66 29.44 194.234 28.9867 193.924 28.4C193.626 27.8027 193.476 27.104 193.476 26.304V21.632H195.316V26.336C195.316 27.0293 195.482 27.5787 195.812 27.984C196.143 28.3787 196.596 28.576 197.172 28.576C197.748 28.576 198.202 28.3787 198.532 27.984C198.863 27.5787 199.028 27.0293 199.028 26.336V21.632H200.868V26.304C200.868 27.0933 200.714 27.7867 200.404 28.384C200.106 28.9707 199.679 29.4293 199.124 29.76C198.57 30.08 197.914 30.24 197.156 30.24Z" fill="#18172B"/>
<g clip-path="url(#clip0_10_301)">
<path d="M108.272 59V57.188H104.408V56.072L108.116 50.72H109.64V56H110.624V57.188H109.64V59H108.272ZM105.788 56H108.272V52.436L105.788 56ZM112.626 59.048C112.458 59.048 112.306 59.008 112.17 58.928C112.034 58.848 111.922 58.74 111.834 58.604C111.754 58.46 111.714 58.304 111.714 58.136C111.714 57.968 111.754 57.816 111.834 57.68C111.922 57.536 112.034 57.424 112.17 57.344C112.306 57.264 112.458 57.224 112.626 57.224C112.794 57.224 112.946 57.264 113.082 57.344C113.218 57.424 113.326 57.536 113.406 57.68C113.494 57.816 113.538 57.968 113.538 58.136C113.538 58.304 113.494 58.46 113.406 58.604C113.326 58.74 113.218 58.848 113.082 58.928C112.946 59.008 112.794 59.048 112.626 59.048ZM118.315 59V57.188H114.451V56.072L118.159 50.72H119.683V56H120.667V57.188H119.683V59H118.315ZM115.831 56H118.315V52.436L115.831 56Z" fill="#18172B"/>
<path d="M127.883 56.636C127.707 56.636 127.547 56.592 127.403 56.504C127.259 56.416 127.143 56.3 127.055 56.156C126.967 56.012 126.923 55.856 126.923 55.688C126.923 55.512 126.967 55.356 127.055 55.22C127.143 55.076 127.259 54.96 127.403 54.872C127.547 54.784 127.707 54.74 127.883 54.74C128.059 54.74 128.219 54.784 128.363 54.872C128.507 54.96 128.623 55.076 128.711 55.22C128.799 55.356 128.843 55.512 128.843 55.688C128.843 55.856 128.799 56.012 128.711 56.156C128.623 56.3 128.507 56.416 128.363 56.504C128.219 56.592 128.059 56.636 127.883 56.636Z" fill="#6E80B0"/>
<path d="M98.9735 54.5895C98.9421 54.4969 98.8842 54.4156 98.8071 54.3555C98.73 54.2955 98.637 54.2593 98.5395 54.2515L95.689 54.025L94.4555 51.2945C94.4162 51.2066 94.3523 51.1319 94.2715 51.0794C94.1907 51.027 94.0965 50.9991 94.0002 50.999C93.9039 50.999 93.8096 51.0268 93.7287 51.0791C93.6479 51.1315 93.5839 51.2061 93.5445 51.294L92.311 54.025L89.4605 54.2515C89.3647 54.2591 89.2732 54.2941 89.1968 54.3524C89.1204 54.4106 89.0624 54.4897 89.0298 54.58C88.9971 54.6704 88.9912 54.7682 89.0127 54.8619C89.0342 54.9555 89.0822 55.041 89.151 55.108L91.2575 57.1615L90.5125 60.3875C90.4899 60.4852 90.4971 60.5874 90.5333 60.6808C90.5695 60.7743 90.6329 60.8548 90.7154 60.9117C90.7979 60.9687 90.8956 60.9996 90.9958 61.0003C91.096 61.0011 91.1942 60.9717 91.2775 60.916L94 59.101L96.7225 60.916C96.8077 60.9726 96.9081 61.0017 97.0103 60.9994C97.1125 60.9972 97.2116 60.9637 97.2942 60.9035C97.3768 60.8432 97.439 60.7592 97.4724 60.6625C97.5058 60.5659 97.5088 60.4614 97.481 60.363L96.5665 57.163L98.8345 55.122C98.983 54.988 99.0375 54.779 98.9735 54.5895Z" fill="#FFB200"/>
<path d="M138.936 59V50.48H139.944V54.332L143.856 50.48H145.176L141.048 54.5L145.608 59H144.156L139.944 54.812V59H138.936ZM149.018 59.18C148.578 59.18 148.17 59.1 147.794 58.94C147.426 58.772 147.102 58.544 146.822 58.256C146.55 57.96 146.338 57.612 146.186 57.212C146.034 56.812 145.958 56.376 145.958 55.904C145.958 55.432 146.034 54.996 146.186 54.596C146.346 54.196 146.562 53.852 146.834 53.564C147.114 53.268 147.442 53.04 147.818 52.88C148.194 52.712 148.602 52.628 149.042 52.628C149.482 52.628 149.886 52.712 150.254 52.88C150.63 53.04 150.954 53.268 151.226 53.564C151.506 53.852 151.722 54.196 151.874 54.596C152.026 54.996 152.102 55.432 152.102 55.904C152.102 56.376 152.022 56.812 151.862 57.212C151.71 57.612 151.494 57.96 151.214 58.256C150.942 58.544 150.618 58.772 150.242 58.94C149.866 59.1 149.458 59.18 149.018 59.18ZM149.03 58.304C149.334 58.304 149.61 58.244 149.858 58.124C150.114 58.004 150.334 57.84 150.518 57.632C150.71 57.416 150.858 57.164 150.962 56.876C151.066 56.58 151.118 56.256 151.118 55.904C151.118 55.552 151.066 55.232 150.962 54.944C150.858 54.648 150.71 54.396 150.518 54.188C150.334 53.972 150.114 53.804 149.858 53.684C149.61 53.564 149.334 53.504 149.03 53.504C148.726 53.504 148.446 53.564 148.19 53.684C147.942 53.804 147.722 53.972 147.53 54.188C147.346 54.396 147.202 54.648 147.098 54.944C146.994 55.232 146.942 55.552 146.942 55.904C146.942 56.256 146.994 56.58 147.098 56.876C147.202 57.164 147.346 57.416 147.53 57.632C147.722 57.84 147.942 58.004 148.19 58.124C148.446 58.244 148.726 58.304 149.03 58.304ZM153.465 59V52.808H154.329L154.389 53.96C154.541 53.576 154.769 53.276 155.073 53.06C155.377 52.836 155.733 52.724 156.141 52.724C156.277 52.724 156.397 52.736 156.501 52.76C156.613 52.776 156.709 52.8 156.789 52.832L156.669 53.744C156.581 53.712 156.489 53.692 156.393 53.684C156.297 53.668 156.201 53.66 156.105 53.66C155.769 53.66 155.473 53.744 155.217 53.912C154.969 54.08 154.773 54.32 154.629 54.632C154.493 54.936 154.425 55.296 154.425 55.712V59H153.465ZM160.55 59.18C160.094 59.18 159.674 59.1 159.29 58.94C158.914 58.78 158.586 58.556 158.306 58.268C158.026 57.972 157.81 57.628 157.658 57.236C157.506 56.836 157.43 56.396 157.43 55.916C157.43 55.444 157.502 55.012 157.646 54.62C157.798 54.22 158.006 53.872 158.27 53.576C158.542 53.28 158.858 53.052 159.218 52.892C159.578 52.724 159.97 52.64 160.394 52.64C160.802 52.64 161.178 52.716 161.522 52.868C161.874 53.02 162.178 53.232 162.434 53.504C162.69 53.776 162.886 54.1 163.022 54.476C163.166 54.852 163.238 55.26 163.238 55.7V56.096H158.426C158.458 56.544 158.562 56.936 158.738 57.272C158.922 57.608 159.166 57.868 159.47 58.052C159.774 58.236 160.126 58.328 160.526 58.328C160.918 58.328 161.258 58.248 161.546 58.088C161.842 57.92 162.094 57.676 162.302 57.356L163.118 57.728C162.958 58.032 162.75 58.292 162.494 58.508C162.238 58.724 161.942 58.888 161.606 59C161.278 59.12 160.926 59.18 160.55 59.18ZM160.394 53.456C160.066 53.456 159.766 53.536 159.494 53.696C159.23 53.856 159.006 54.08 158.822 54.368C158.646 54.648 158.53 54.976 158.474 55.352H162.23C162.198 54.976 162.098 54.648 161.93 54.368C161.762 54.08 161.546 53.856 161.282 53.696C161.018 53.536 160.722 53.456 160.394 53.456ZM166.53 59.18C166.098 59.18 165.714 59.1 165.378 58.94C165.042 58.772 164.778 58.544 164.586 58.256C164.402 57.968 164.31 57.636 164.31 57.26C164.31 56.852 164.414 56.5 164.622 56.204C164.838 55.908 165.138 55.68 165.522 55.52C165.906 55.352 166.354 55.268 166.866 55.268C167.154 55.268 167.446 55.3 167.742 55.364C168.038 55.428 168.302 55.512 168.534 55.616V55.16C168.534 54.824 168.466 54.532 168.33 54.284C168.202 54.028 168.022 53.832 167.79 53.696C167.558 53.552 167.286 53.48 166.974 53.48C166.598 53.48 166.27 53.568 165.99 53.744C165.718 53.92 165.514 54.168 165.378 54.488L164.538 54.2C164.65 53.88 164.822 53.604 165.054 53.372C165.294 53.14 165.578 52.96 165.906 52.832C166.242 52.704 166.602 52.64 166.986 52.64C167.482 52.64 167.914 52.748 168.282 52.964C168.658 53.172 168.946 53.468 169.146 53.852C169.354 54.228 169.458 54.672 169.458 55.184V59H168.618L168.558 58.04C168.382 58.384 168.114 58.66 167.754 58.868C167.402 59.076 166.994 59.18 166.53 59.18ZM165.282 57.224C165.282 57.456 165.342 57.66 165.462 57.836C165.582 58.004 165.75 58.136 165.966 58.232C166.182 58.328 166.43 58.376 166.71 58.376C167.054 58.376 167.362 58.3 167.634 58.148C167.914 57.988 168.134 57.776 168.294 57.512C168.454 57.24 168.534 56.932 168.534 56.588V56.36C168.27 56.256 168.002 56.176 167.73 56.12C167.466 56.056 167.214 56.024 166.974 56.024C166.446 56.024 166.03 56.132 165.726 56.348C165.43 56.564 165.282 56.856 165.282 57.224ZM171.09 59V52.808H171.954L172.002 53.792C172.186 53.44 172.45 53.16 172.794 52.952C173.146 52.736 173.55 52.628 174.006 52.628C174.478 52.628 174.89 52.74 175.242 52.964C175.594 53.188 175.862 53.508 176.046 53.924C176.238 54.332 176.334 54.816 176.334 55.376V59H175.374V55.436C175.374 54.82 175.238 54.344 174.966 54.008C174.702 53.672 174.322 53.504 173.826 53.504C173.482 53.504 173.174 53.584 172.902 53.744C172.638 53.896 172.43 54.112 172.278 54.392C172.126 54.664 172.05 54.976 172.05 55.328V59H171.09Z" fill="#6E80B0"/>
</g>
<rect x="8" y="8" width="64" height="64" rx="16" fill="#57CE96"/>
<path d="M59.1837 42.8716L54.1897 44.1681C54.1417 42.5835 54.1417 41.431 54.1417 41.431H40.3121H40.2641H39.7839H39.7359H25.9064C25.9064 41.431 25.8583 42.5835 25.8583 44.2161L20.8163 42.8716C20.2401 42.7275 19.6639 44.8404 20.2881 44.9845L25.8583 46.425C25.8583 48.4899 25.8583 50.7468 26.0024 52.0913C26.2905 55.2125 27.0588 57.0373 31.3325 57.7095C35.03 58.2858 38.9676 58.2377 40.024 58.2377C41.0804 58.2858 45.018 58.2858 48.7155 57.7095C53.0372 57.0373 53.7575 55.1645 54.0456 52.0913C54.1897 50.6987 54.1897 48.4899 54.1897 46.377L59.7119 44.9364C60.3361 44.8404 59.7599 42.7275 59.1837 42.8716Z" fill="#01246B"/>
<path d="M26.6267 39.6063C27.9712 37.6855 27.539 35.5247 25.3302 34.1321C23.1213 32.7396 22.9292 30.1465 24.946 27.3134C26.2905 25.3446 25.7623 23.1357 23.5534 21.7432" stroke="white" stroke-opacity="0.5" stroke-miterlimit="10" stroke-linecap="round"/>
<path d="M28.7395 31.443C27.2989 30.1465 27.443 28.3218 29.3157 26.449C30.6602 25.1045 30.4682 23.5679 29.0276 22.2714" stroke="white" stroke-opacity="0.5" stroke-miterlimit="10" stroke-linecap="round"/>
<path d="M43.0012 35.1885L43.3854 34.3242C42.521 34.0361 41.9928 33.5559 42.0408 33.0757C42.1369 32.4995 43.2413 32.1633 44.5378 32.3554C45.8343 32.5475 46.7467 33.2198 46.6507 33.796C46.5546 34.2762 45.8824 34.5643 44.97 34.5643L45.066 35.4767C52.2689 36.7732 57.7911 38.9821 57.503 40.5667L29.5078 35.9568C29.7959 34.4683 35.7503 34.1321 43.0012 35.1885Z" fill="#01246B"/>
<path d="M35.03 36.1969L31.5246 35.6207C32.2449 34.9484 35.1741 34.8044 38.9196 35.1885C35.03 35.1405 34.934 35.9088 35.03 36.1969Z" fill="white"/>
<path d="M42.8091 33.7479C42.665 33.6039 42.665 33.4598 42.7131 33.2678C42.8091 32.7876 43.6734 32.4995 44.6819 32.5955C44.6338 32.5955 44.5858 32.5475 44.5378 32.5475C43.4334 32.3554 42.521 32.6435 42.4249 33.1237C42.3769 33.3638 42.569 33.5559 42.8091 33.7479Z" fill="white"/>
<path d="M36.2785 56.8452C32.2449 56.2209 31.5726 54.5403 31.2845 51.7071C31.0444 49.2581 31.1885 43.832 31.2365 42.3434H26.9628C26.9147 43.784 26.8187 49.3062 27.0108 51.7551C27.2989 54.5883 27.9712 56.2689 32.0048 56.8932C35.4622 57.4214 39.1116 57.3734 40.12 57.3734C40.5522 57.3734 38.7275 57.2293 36.2785 56.8452Z" fill="white"/>
<defs>
<clipPath id="clip0_10_301">
<rect width="144" height="18" fill="white" transform="translate(88 46)"/>
</clipPath>
</defs>
</svg>
